<svg width="40" height="39" viewBox="0 0 40 39" fill="none" xmlns="http://www.w3.org/2000/svg">
<path d="M39.1315 18.3031V20.7162C39.0748 21.1756 39.0265 21.6357 38.9608 22.0936C38.3624 26.2761 36.6481 29.9404 33.6623 32.9285C28.7068 37.8878 22.7223 39.7335 15.8448 38.3773C11.1787 37.4571 7.39348 34.9903 4.50889 31.2157C1.2745 26.9833 0.0157985 22.1782 0.707102 16.9024C1.26166 12.6722 3.08624 9.02452 6.08114 5.9843C8.96799 3.05438 12.4449 1.21694 16.5028 0.502975C17.2047 0.379825 17.9157 0.303517 18.6221 0.206055C19.4267 0.206055 20.2306 0.206055 21.0352 0.206055C21.6925 0.292184 22.3536 0.355648 23.0064 0.467466C26.6321 1.08699 29.8401 2.60182 32.5872 5.04669C35.9455 8.03554 38.0466 11.7482 38.8361 16.1839C38.9608 16.8857 39.0348 17.5967 39.1323 18.3031H39.1315ZM21.4296 21.7218C21.4296 19.926 21.4371 18.1301 21.4266 16.3342C21.4205 15.346 20.7458 14.6909 19.7576 14.6849C18.8661 14.6796 17.9738 14.6796 17.0823 14.6849C16.1334 14.6909 15.4292 15.3543 15.4013 16.2571C15.3741 17.1373 16.0775 17.8604 17.0136 17.9034C17.3143 17.9178 17.6165 17.917 17.9179 17.9034C18.1355 17.8944 18.2299 17.9503 18.2299 18.1935C18.2232 21.2202 18.2232 24.2468 18.2299 27.2742C18.2299 27.5212 18.1264 27.5651 17.9134 27.5613C17.3611 27.5515 16.8081 27.5515 16.2558 27.5598C15.2963 27.5741 14.6133 28.2382 14.6095 29.1501C14.605 30.0651 15.2834 30.7541 16.2369 30.7587C18.6357 30.7685 21.0345 30.7692 23.4332 30.7587C24.3656 30.7541 25.0417 30.0704 25.047 29.1751C25.0531 28.2594 24.3746 27.5794 23.4242 27.5613C22.884 27.5515 22.3438 27.5424 21.8043 27.5651C21.5044 27.5779 21.422 27.4819 21.4243 27.1843C21.4371 25.3635 21.4311 23.5419 21.4303 21.7211L21.4296 21.7218ZM21.4273 9.8624C21.4288 8.96332 20.7307 8.26069 19.8324 8.25842C18.9326 8.25615 18.2307 8.95426 18.2284 9.85257C18.2262 10.7516 18.925 11.455 19.8226 11.4573C20.7202 11.4596 21.4251 10.7584 21.4273 9.8624Z" fill="#008DFC"/>
</svg>
